<svg xmlns="http://www.w3.org/2000/svg" width="420" height="320" viewBox="0 0 420 320" role="img" aria-labelledby="title desc">
  <title id="title">PlainHive explain panel</title>
  <desc id="desc">Explain view with reasoning steps, citations, and confidence chips.</desc>
  <defs>
    <linearGradient id="explainGradient" x1="0%" y1="0%" x2="100%" y2="0%">
      <stop offset="0%" stop-color="#1AE7A7" />
      <stop offset="100%" stop-color="#0EA371" />
    </linearGradient>
  </defs>
  <rect width="420" height="320" rx="26" fill="#101D18" stroke="#173228" />
  <g transform="translate(28 28)">
    <text x="0" y="0" font-family="'Inter', sans-serif" font-size="16" fill="#F2FFF7" font-weight="600">Explain</text>
    <text x="0" y="26" font-family="'Inter', sans-serif" font-size="12" fill="#8EA69C">Confidence 0.82 · 3 verifications</text>
  </g>
  <g transform="translate(28 72)">
    <rect width="364" height="72" rx="18" fill="#0E1914" stroke="#173228" />
    <text x="24" y="28" font-family="'Inter', sans-serif" font-size="13" fill="#C9E7D7">Step 1 · Retrieval aggregator compiled 12 policy documents.</text>
    <text x="24" y="52" font-family="'Inter', sans-serif" font-size="12" fill="#8EA69C">Sources: eur-lex.europa.eu, client-archive/reg-2024</text>
  </g>
  <g transform="translate(28 156)">
    <rect width="364" height="72" rx="18" fill="#0E1914" stroke="#173228" />
    <text x="24" y="28" font-family="'Inter', sans-serif" font-size="13" fill="#C9E7D7">Step 2 · Reasoner synthesised compliance roadmap.</text>
    <text x="24" y="52" font-family="'Inter', sans-serif" font-size="12" fill="#8EA69C">Verifier requested explicit references for sections 3 & 4.</text>
  </g>
  <g transform="translate(28 240)">
    <rect width="364" height="52" rx="18" fill="#12271F" stroke="#1AE7A7" />
    <text x="32" y="32" font-family="'Inter', sans-serif" font-size="12" fill="#64FFC8">Confidence chips · 0.82 overall · 0.91 regulatory, 0.74 market</text>
    <g transform="translate(284 14)">
      <rect width="72" height="28" rx="12" fill="url(#explainGradient)" />
      <text x="36" y="20" text-anchor="middle" font-family="'Inter', sans-serif" font-size="12" fill="#04140D" font-weight="600">Export</text>
    </g>
<svg width="720" height="480" viewBox="0 0 720 480" fill="none" xmlns="http://www.w3.org/2000/svg">
  <rect width="720" height="480" rx="32" fill="#0B0E0C" />
  <rect x="40" y="48" width="640" height="384" rx="28" fill="#111613" stroke="#1C2520" stroke-width="2" />
  <rect x="72" y="88" width="288" height="44" rx="14" fill="#0EA371" fill-opacity="0.2" />
  <text x="92" y="116" font-family="Inter" font-size="18" fill="#0EA371">Explain view</text>
  <text x="72" y="162" font-family="Inter" font-size="16" fill="#9BA8A1">Reasoning steps</text>
  <rect x="72" y="176" width="560" height="64" rx="18" fill="#0B0E0C" stroke="#1C2520" stroke-width="1.5" />
  <text x="96" y="210" font-family="Inter" font-size="15" fill="#9BA8A1">1. Retrieval agent found 5 trusted sources</text>
  <rect x="72" y="256" width="560" height="64" rx="18" fill="#0B0E0C" stroke="#1C2520" stroke-width="1.5" />
  <text x="96" y="290" font-family="Inter" font-size="15" fill="#9BA8A1">2. Reasoning agent drafted structured argument</text>
  <rect x="72" y="336" width="560" height="64" rx="18" fill="#0B0E0C" stroke="#1C2520" stroke-width="1.5" />
  <text x="96" y="370" font-family="Inter" font-size="15" fill="#9BA8A1">3. Verification agent confirmed citations</text>
  <g>
    <rect x="440" y="96" width="176" height="36" rx="12" fill="#2563EB" fill-opacity="0.18" />
    <text x="458" y="120" font-family="Inter" font-size="14" fill="#93C5FD">Confidence: High</text>
  </g>
  <g>
    <rect x="440" y="144" width="176" height="36" rx="12" fill="#F59E0B" fill-opacity="0.18" />
    <text x="462" y="168" font-family="Inter" font-size="14" fill="#FDE68A">Uncertainty: Low</text>
  </g>
</svg>
