<svg xmlns="http://www.w3.org/2000/svg" width="680" height="420" viewBox="0 0 680 420" role="img" aria-labelledby="title desc">
  <title id="title">PlainHive collaborative canvas</title>
  <desc id="desc">Interface mockup showing multi-agent reasoning, explain, and citations.</desc>
  <defs>
    <linearGradient id="heroAccent" x1="0%" y1="0%" x2="100%" y2="0%">
      <stop offset="0%" stop-color="#1AE7A7" />
      <stop offset="100%" stop-color="#0EA371" />
    </linearGradient>
  </defs>
  <rect width="680" height="420" rx="32" fill="#0B1611" stroke="#183329" />
  <g transform="translate(32 32)">
    <rect width="616" height="72" rx="18" fill="#101D18" stroke="#163027" />
    <text x="48" y="48" font-family="'Space Grotesk', sans-serif" font-size="22" fill="#F2FFF7" font-weight="600">Strategy synthesis · PlainHive</text>
    <g transform="translate(456 20)">
      <rect width="128" height="32" rx="14" fill="url(#heroAccent)" />
      <text x="64" y="22" text-anchor="middle" font-family="'Inter', sans-serif" font-size="13" fill="#04140D" font-weight="600">Explain reasoning</text>
    </g>
  </g>
  <g transform="translate(32 128)">
    <rect width="368" height="248" rx="26" fill="#101D18" stroke="#173228" />
    <text x="32" y="68" font-family="'Inter', sans-serif" font-size="16" fill="#64FFC8" font-weight="600">Agent debate</text>
    <text x="32" y="98" font-family="'Inter', sans-serif" font-size="13" fill="#C9E7D7">Retriever → Provided macro indicators for DACH region.</text>
    <text x="32" y="128" font-family="'Inter', sans-serif" font-size="13" fill="#C9E7D7">Reasoner → Suggests phased rollout, requests legal review.</text>
    <text x="32" y="158" font-family="'Inter', sans-serif" font-size="13" fill="#C9E7D7">Verifier → Flags gap: cite upcoming EU AI Act requirements.</text>
    <rect x="32" y="188" width="304" height="56" rx="16" fill="#12271F" stroke="#1AE7A7" />
    <text x="64" y="220" font-family="'Inter', sans-serif" font-size="13" fill="#64FFC8">User (Judge): “Prioritise explainable oversight for regulators.”</text>
  </g>
  <g transform="translate(424 128)">
    <rect width="224" height="248" rx="26" fill="#101D18" stroke="#173228" />
    <text x="28" y="68" font-family="'Inter', sans-serif" font-size="16" fill="#64FFC8" font-weight="600">Confidence & sources</text>
    <rect x="28" y="96" width="168" height="18" rx="9" fill="#11221B" />
    <rect x="28" y="96" width="132" height="18" rx="9" fill="url(#heroAccent)" />
    <text x="208" y="110" font-family="'Inter', sans-serif" font-size="12" fill="#64FFC8" text-anchor="end">0.82</text>
    <text x="28" y="140" font-family="'Inter', sans-serif" font-size="12" fill="#C9E7D7">Citations</text>
    <text x="28" y="164" font-family="'Inter', sans-serif" font-size="11" fill="#64FFC8">• eur-lex.europa.eu/ai-act</text>
    <text x="28" y="188" font-family="'Inter', sans-serif" font-size="11" fill="#64FFC8">• client-database/regulations-2024</text>
    <text x="28" y="212" font-family="'Inter', sans-serif" font-size="11" fill="#64FFC8">• perplexity-whitepaper.pdf</text>
    <rect x="28" y="230" width="128" height="36" rx="14" fill="#12271F" stroke="#1AE7A7" />
    <text x="92" y="254" text-anchor="middle" font-family="'Inter', sans-serif" font-size="12" fill="#64FFC8">Export memo</text>
  </g>
<svg width="640" height="420" viewBox="0 0 640 420" fill="none" xmlns="http://www.w3.org/2000/svg">
  <rect width="640" height="420" rx="36" fill="#0B0E0C" />
  <rect x="28" y="28" width="584" height="364" rx="24" fill="#111613" stroke="#1C2520" stroke-width="2" />
  <rect x="52" y="60" width="168" height="44" rx="12" fill="#0EA371" fill-opacity="0.16" stroke="#0EA371" />
  <text x="68" y="88" font-family="'Space Grotesk', 'Inter', sans-serif" font-size="16" fill="#F8FAF8" letter-spacing="0.24em">PLAINHIVE</text>
  <rect x="240" y="60" width="320" height="44" rx="12" fill="#0B0E0C" stroke="#1C2520" />
  <text x="260" y="87" font-family="'Inter', sans-serif" font-size="15" fill="#9BA8A1">Ask PlainHive anything…</text>
  <rect x="52" y="132" width="536" height="104" rx="20" fill="#0B0E0C" stroke="#1C2520" />
  <text x="76" y="168" font-family="'Space Grotesk', 'Inter', sans-serif" font-size="18" fill="#F8FAF8">Explain impact of new ESG policy on client portfolio</text>
  <rect x="76" y="184" width="164" height="20" rx="10" fill="#0EA371" fill-opacity="0.16" />
  <text x="88" y="199" font-family="'Inter', sans-serif" font-size="12" fill="#0EA371">Confidence · Medium-High</text>
  <rect x="76" y="214" width="216" height="12" rx="6" fill="#1C2520" />
  <rect x="76" y="214" width="156" height="12" rx="6" fill="#0EA371" />
  <rect x="52" y="256" width="260" height="128" rx="18" fill="#0B0E0C" stroke="#1C2520" />
  <text x="72" y="290" font-family="'Inter', sans-serif" font-size="14" fill="#9BA8A1">Agent Timeline</text>
  <circle cx="96" cy="316" r="12" fill="#0EA371" fill-opacity="0.2" stroke="#0EA371" />
  <text x="118" y="322" font-family="'Inter', sans-serif" font-size="13" fill="#F8FAF8">Retrieval</text>
  <circle cx="96" cy="348" r="12" fill="#38BDF8" fill-opacity="0.2" stroke="#38BDF8" />
  <text x="118" y="354" font-family="'Inter', sans-serif" font-size="13" fill="#F8FAF8">Reasoning</text>
  <circle cx="96" cy="380" r="12" fill="#FCD34D" fill-opacity="0.2" stroke="#FCD34D" />
  <text x="118" y="386" font-family="'Inter', sans-serif" font-size="13" fill="#F8FAF8">Verification</text>
  <rect x="332" y="256" width="256" height="128" rx="18" fill="#0B0E0C" stroke="#1C2520" />
  <text x="352" y="290" font-family="'Inter', sans-serif" font-size="14" fill="#9BA8A1">Explainability Panel</text>
  <rect x="352" y="308" width="216" height="68" rx="14" fill="#111613" stroke="#1C2520" />
  <text x="372" y="332" font-family="'Inter', sans-serif" font-size="13" fill="#F8FAF8">“We compared EU Taxonomy clause 7.3 with</text>
  <text x="372" y="352" font-family="'Inter', sans-serif" font-size="13" fill="#9BA8A1">latest client filings. 3 flagged assets require</text>
  <text x="372" y="372" font-family="'Inter', sans-serif" font-size="13" fill="#9BA8A1">mitigation plans.”</text>
  <rect x="484" y="148" width="84" height="32" rx="12" fill="#111613" stroke="#1C2520" />
  <text x="500" y="169" font-family="'Inter', sans-serif" font-size="12" fill="#F8FAF8">Explain</text>
  <rect x="580" y="148" width="8" height="32" rx="4" fill="#0EA371" />
</svg>
