<svg xmlns="http://www.w3.org/2000/svg" width="48" height="48" viewBox="0 0 48 48" role="img" aria-labelledby="title desc">
  <title id="title">PlainHive icon</title>
  <desc id="desc">A glowing hexagonal hive emblem.</desc>
  <defs>
    <radialGradient id="glow" cx="50%" cy="45%" r="65%">
      <stop offset="0%" stop-color="#1AE7A7" stop-opacity="0.95" />
      <stop offset="65%" stop-color="#0EA371" stop-opacity="0.85" />
      <stop offset="100%" stop-color="#04140D" stop-opacity="0.6" />
    </radialGradient>
  </defs>
  <rect x="3" y="3" width="42" height="42" rx="14" fill="#04140D" stroke="#1AE7A7" stroke-width="1.5" />
  <path d="M24 11l10 5.7v11.4L24 34.8l-10-5.7V17.3z" fill="url(#glow)" />
  <path d="M14 17.3L24 11l10 6.3-10 6.3z" fill="#25F2B2" opacity="0.8" />
  <path d="M14 29.7l10 5.7 10-5.7-10-6.3z" fill="#0EA371" opacity="0.9" />
  <circle cx="24" cy="24" r="4" fill="#02140C" stroke="#C5FFE6" stroke-width="1.4" />
<svg width="128" height="128" viewBox="0 0 128 128" fill="none" xmlns="http://www.w3.org/2000/svg">
  <rect width="128" height="128" rx="24" fill="#0B0E0C" />
  <path d="M64 16L102 38V90L64 112L26 90V38L64 16Z" stroke="#0EA371" stroke-width="6" fill="#0EA371" fill-opacity="0.12" />
  <path d="M64 34L86 46V70L64 82L42 70V46L64 34Z" stroke="#0EA371" stroke-width="4" fill="#0EA371" fill-opacity="0.22" />
  <path d="M64 54L74 60V72L64 78L54 72V60L64 54Z" fill="#0EA371" />
</svg>
