<svg xmlns="http://www.w3.org/2000/svg" width="1200" height="630" viewBox="0 0 1200 630" role="img" aria-labelledby="title desc">
  <title id="title">PlainHive Open Graph image</title>
  <desc id="desc">Dark promotional banner for PlainHive emphasising transparent multi-agent AI.</desc>
  <defs>
    <linearGradient id="bgGradient" x1="0%" y1="0%" x2="100%" y2="100%">
      <stop offset="0%" stop-color="#06100C" />
      <stop offset="100%" stop-color="#0F2219" />
    </linearGradient>
    <linearGradient id="tagGradient" x1="0%" y1="0%" x2="100%" y2="0%">
      <stop offset="0%" stop-color="#1AE7A7" />
      <stop offset="100%" stop-color="#0EA371" />
    </linearGradient>
  </defs>
  <rect width="1200" height="630" fill="url(#bgGradient)" />
  <circle cx="960" cy="140" r="220" fill="#0D1A15" opacity="0.4" />
  <circle cx="260" cy="520" r="260" fill="#072019" opacity="0.35" />
  <g transform="translate(140 160)">
    <rect width="260" height="260" rx="44" fill="#0B1813" stroke="#1AE7A7" stroke-width="2" />
    <path d="M270 40h240" stroke="#143425" stroke-width="2" stroke-linecap="round" stroke-dasharray="10 18" />
    <path d="M270 120h220" stroke="#143425" stroke-width="2" stroke-linecap="round" stroke-dasharray="12 16" />
    <text x="24" y="76" font-family="'Space Grotesk', sans-serif" font-size="42" font-weight="600" fill="#F2FFF7">PlainHive</text>
    <text x="24" y="122" font-family="'Inter', sans-serif" font-size="18" fill="#C9E7D7">Transparent multi-agent AI that thinks with you.</text>
    <text x="24" y="162" font-family="'Inter', sans-serif" font-size="18" fill="#64FFC8">See reasoning · Control roles · Trust outputs</text>
    <g transform="translate(24 200)">
      <rect width="200" height="48" rx="18" fill="url(#tagGradient)" />
      <text x="100" y="32" text-anchor="middle" font-family="'Inter', sans-serif" font-size="16" fill="#04140D" font-weight="600">Explainable by design</text>
    </g>
  </g>
  <g transform="translate(620 160)">
    <rect width="360" height="240" rx="32" fill="#0F1E18" stroke="#173228" />
    <text x="36" y="76" font-family="'Inter', sans-serif" font-size="20" fill="#64FFC8" font-weight="600">Why teams pick PlainHive</text>
    <text x="36" y="120" font-family="'Inter', sans-serif" font-size="16" fill="#C9E7D7">• Transparent reasoning and citations</text>
    <text x="36" y="156" font-family="'Inter', sans-serif" font-size="16" fill="#C9E7D7">• Judge, Collaborator, Prover roles</text>
    <text x="36" y="192" font-family="'Inter', sans-serif" font-size="16" fill="#C9E7D7">• Confidence dials and audit trail</text>
  </g>
  <text x="140" y="540" font-family="'Inter', sans-serif" font-size="18" fill="#8EA69C">plainhive.ai · Built for trustworthy AI deployments</text>
<svg width="1200" height="630" viewBox="0 0 1200 630" fill="none" xmlns="http://www.w3.org/2000/svg">
  <rect width="1200" height="630" fill="#0B0E0C" />
  <rect x="80" y="80" width="1040" height="470" rx="48" fill="#111613" stroke="#1C2520" stroke-width="4" />
  <text x="140" y="220" font-family="'Space Grotesk', 'Inter', sans-serif" font-size="72" fill="#F8FAF8">PlainHive</text>
  <text x="140" y="304" font-family="Inter" font-size="32" fill="#9BA8A1">Transparent, multi-agent AI that thinks with you</text>
  <text x="140" y="380" font-family="Inter" font-size="24" fill="#0EA371">Explainable by design • User-in-the-loop • Confidence badges</text>
  <g transform="translate(820 170)">
    <polygon points="100,0 200,58 200,174 100,232 0,174 0,58" fill="#0EA371" fill-opacity="0.16" stroke="#0EA371" stroke-width="6" />
    <polygon points="100,30 166,68 166,146 100,184 34,146 34,68" fill="#0EA371" fill-opacity="0.26" />
    <polygon points="100,70 142,94 142,126 100,150 58,126 58,94" fill="#0EA371" fill-opacity="0.5" />
  </g>
</svg>
